<svg width="49" height="49" viewBox="0 0 49 49" fill="none" xmlns="http://www.w3.org/2000/svg">
<g clip-path="url(#clip0_2361_12)">
<path d="M46.0049 27.4697H46.0039L46.0029 27.4707L45.9736 27.4902C45.5666 27.7577 45.4407 28.1697 45.4014 28.3613L45.3984 28.373C45.3632 28.5692 45.3269 28.9933 45.6133 29.4141V29.415C46.3695 30.5318 46.5131 31.9407 45.9961 33.1885V33.1895C45.5149 34.3548 44.5186 35.2148 43.3047 35.5283L43.0615 35.583C42.5595 35.6768 42.2828 36.0002 42.165 36.1768C42.0464 36.3549 41.8595 36.7328 41.958 37.2256L41.9648 37.2607C42.1831 38.3616 41.9332 39.4856 41.2783 40.3838L41.1426 40.5605C40.3755 41.5001 39.2498 42.0352 38.0518 42.0352C37.7899 42.0351 37.5248 42.009 37.2666 41.958H37.2676L37.2314 41.9512L37.2236 41.9492L37.2158 41.9482C37.1385 41.9354 37.0489 41.9238 36.9512 41.9238C36.2838 41.9238 35.7153 42.4027 35.5898 43.0518V43.0527C35.2294 44.9334 33.5737 46.2998 31.6563 46.2998C30.9015 46.2998 30.1688 46.0866 29.5234 45.6777L29.5029 45.6641L29.4932 45.6592L29.4219 45.6104C29.1334 45.4144 28.8423 45.3702 28.6465 45.3701C28.1763 45.3701 27.7432 45.6052 27.4863 45.9922L27.4648 46.0244L27.4639 46.0264C26.7393 47.1259 25.4939 47.7968 24.1455 47.7969C22.7989 47.7969 21.5521 47.1279 20.8086 46.0049C20.5446 45.6063 20.1112 45.374 19.6406 45.374C19.467 45.3741 19.2227 45.4079 18.9707 45.5479L18.8633 45.6133C18.1944 46.0645 17.4228 46.3027 16.627 46.3027C14.7094 46.3026 13.0536 44.9365 12.6934 43.0557V43.0547L12.665 42.9355C12.4969 42.3482 11.9586 41.9279 11.333 41.9277C11.2607 41.9277 11.1601 41.9317 11.0527 41.9551V41.9541C10.7732 42.0093 10.5008 42.0381 10.2314 42.0381C9.03352 42.038 7.9086 41.5039 7.1416 40.5645C6.38589 39.6398 6.08572 38.4387 6.31836 37.2646L6.3252 37.2285C6.42378 36.7354 6.23676 36.3576 6.11816 36.1797C5.99906 36.0011 5.71871 35.6806 5.22266 35.5869C3.89919 35.331 2.80374 34.4391 2.28711 33.1924V33.1914L2.20313 32.9717C1.81622 31.8613 1.93746 30.644 2.53516 29.6338L2.55664 29.5967L2.56152 29.582L2.6709 29.4209L2.66992 29.4199C2.95255 29.0005 2.92689 28.583 2.88281 28.3682C2.84032 28.1611 2.70841 27.7631 2.28613 27.4834H2.28516C1.15148 26.7361 0.482422 25.4895 0.482422 24.1436C0.482428 22.7974 1.15189 21.5523 2.28711 20.8125L2.29102 20.8096L2.32324 20.7881L2.3252 20.7871C2.72633 20.5176 2.85244 20.1136 2.89258 19.918C2.93662 19.706 2.96369 19.2893 2.68945 18.8779L2.68262 18.8672L2.68066 18.8643L2.5459 18.6523C1.90886 17.5729 1.8133 16.2616 2.29785 15.0918V15.0908C2.8111 13.8476 3.91078 12.9518 5.23535 12.6963L5.23438 12.6953C5.73541 12.6012 6.01128 12.2799 6.12891 12.1035C6.24753 11.9255 6.43456 11.5478 6.33594 11.0547V11.0527C6.09305 9.86019 6.39008 8.64987 7.15137 7.71973H7.15234C7.91935 6.78021 9.04417 6.24515 10.2422 6.24512C10.5001 6.24512 10.7625 6.27111 11.0215 6.32227L11.0352 6.32422L11.0781 6.33203C11.1556 6.34493 11.2458 6.35645 11.3438 6.35645C12.011 6.35627 12.5787 5.87743 12.7041 5.22852V5.22754C13.0644 3.34675 14.7202 1.98058 16.6377 1.98047C17.4331 1.98047 18.202 2.21562 18.8682 2.66699L18.8809 2.67578L18.8945 2.68457C19.1797 2.87091 19.4614 2.91016 19.6484 2.91016C20.1144 2.91003 20.5513 2.67472 20.8086 2.28613V2.28516C21.5557 1.15183 22.81 0.482422 24.1494 0.482422C25.4866 0.482577 26.724 1.1431 27.4678 2.25195L27.4873 2.2832C27.7461 2.67955 28.1821 2.91002 28.6494 2.91016C28.8476 2.91016 29.1379 2.8647 29.4268 2.66895L29.4277 2.66992C30.0964 2.21894 30.8676 1.98056 31.6631 1.98047C33.5807 1.98047 35.2374 3.34664 35.5977 5.22754V5.22852C35.7231 5.8775 36.2907 6.35642 36.958 6.35645C37.0303 6.35645 37.1301 6.35044 37.2373 6.32715L37.2383 6.3291L37.2725 6.32129L37.2734 6.32227C37.5318 6.27124 37.7975 6.24512 38.0596 6.24512C39.2575 6.24524 40.3825 6.78029 41.1494 7.71973V7.71875C41.9087 8.6502 42.2082 9.8611 41.9658 11.0449C41.8627 11.5446 42.0487 11.9231 42.1689 12.1035C42.2879 12.2819 42.5673 12.6012 43.0625 12.6953V12.6963C44.3869 12.9517 45.4831 13.8444 46 15.0918C46.5168 16.3394 46.3732 17.7477 45.6172 18.8643V18.8652C45.3337 19.2851 45.3602 19.7038 45.4043 19.9189C45.4467 20.1256 45.5782 20.5221 45.999 20.8018V20.8027L46.0313 20.8242L46.0342 20.8203C47.1292 21.5456 47.7969 22.7877 47.7969 24.1328C47.7969 25.4793 47.1281 26.7262 46.0049 27.4697Z" fill="#171717" stroke="white" stroke-width="0.9656"/>
</g>
<defs>
<clipPath id="clip0_2361_12">
<rect width="48.28" height="48.28" fill="white"/>
</clipPath>
</defs>
</svg>
