<svg width="84" height="35" viewBox="0 0 84 35" fill="none" xmlns="http://www.w3.org/2000/svg">
<g clip-path="url(#clip0_2361_15)">
<path d="M7.22348 36.34C7.90273 33.4627 8.85749 30.5058 10.0095 27.7891C11.1199 25.1706 12.4412 22.9559 14.6237 21.1021C15.7615 20.1344 17.013 19.3072 18.3075 18.5634C19.6745 17.7763 21.0661 17.0353 22.4456 16.2658C24.0423 15.3773 26.1351 13.8288 27.9106 13.4501C28.7885 13.2637 29.7275 13.0553 30.6192 12.879C31.5282 12.701 31.4054 12.3884 32.2851 12.6689C32.5334 12.7474 33.0487 13.6515 33.3329 13.837C33.8344 14.1637 34.4566 14.158 34.9754 14.4474C37.1928 15.6871 38.1673 18.1368 40.3135 19.3766C41.4843 20.0545 42.6439 21.0497 43.8254 21.6565C47.0216 23.3038 50.9033 20.8302 53.1542 18.4349C54.6923 16.7969 56.0581 15.2966 57.0105 13.2538C57.3349 12.5565 57.93 10.8535 58.8187 10.6674C59.6607 10.4918 59.803 11.1054 60.461 11.5134C62.1621 12.5664 64.0825 12.9752 66.0711 13.0781C66.6835 13.1109 67.2751 12.9681 67.8709 13.1701C68.7566 13.4701 69.4962 14.2317 70.2939 14.701C72.2811 15.8746 74.6035 16.3869 76.6698 17.3975C77.3813 17.7466 77.826 17.7551 78.0079 18.5351C78.1561 19.1683 77.7944 20.0017 77.7697 20.6407C77.7409 21.3844 77.8936 21.5595 77.4599 22.2256C77.0115 22.9139 76.3196 23.4687 75.8065 24.1195C73.893 26.5343 71.3513 28.2967 69.4097 30.7129C67.1132 33.5715 64.3323 36.3373 61.2404 38.3442C59.7373 39.3187 58.095 39.9141 56.4302 40.5413C54.4716 41.2822 52.5448 42.2346 50.4754 42.62C47.443 43.1818 44.0656 44.1009 41.2245 42.5785C39.8001 41.8166 38.9365 41.6133 37.3046 41.6169C35.8757 41.6199 34.6691 41.2134 33.2862 40.967C31.1232 40.5814 28.9009 41.5945 27.0435 42.576C25.2004 43.546 23.1912 45.4188 22.5745 47.4638C22.4243 47.9586 22.4089 49.0301 21.9606 49.3759C21.6889 49.5863 21.5482 49.5217 21.2296 49.4823C20.5098 49.3891 19.6863 48.7277 18.9878 48.4925C17.7481 48.0709 16.4317 47.8794 15.2473 47.2985C14.1876 46.7762 13.1601 46.3013 12.0907 45.8176C10.3239 45.0199 9.16067 43.8118 7.96165 42.3432C7.28137 41.5067 6.52238 40.362 5.47399 39.9363C5.44909 40.0901 5.3574 40.1998 7.21793 36.3452L7.22348 36.34Z" fill="white"/>
<mask id="mask0_2361_15" style="mask-type:luminance" maskUnits="userSpaceOnUse" x="7" y="11" width="71" height="38">
<path d="M8.60621 35.5694C8.78709 34.869 9.32093 34.2512 9.51557 33.561C9.62019 33.1869 9.62344 32.8077 9.77418 32.4447C9.91852 32.155 10.0789 31.8711 10.2445 31.5928C10.6299 30.9556 10.7968 30.3272 10.8832 29.609C10.9724 28.8649 11.5582 28.0174 11.9432 27.391C12.3159 26.7826 12.5447 26.182 12.847 25.5413C13.132 24.938 13.5346 24.4169 13.9289 23.8804C14.4547 23.1652 14.9883 22.4048 15.6166 21.7692C16.6118 20.7661 17.8207 19.8804 19.0912 19.258C20.3682 18.6336 21.5682 17.8719 22.8318 17.2266C23.3228 16.975 23.8067 16.7469 24.2839 16.4852C24.8291 16.1887 25.5321 16.0015 26.1447 15.9166C26.3539 15.8891 26.5763 15.929 26.7891 15.8898C26.9748 15.8552 27.1335 15.7431 27.3192 15.7085C27.848 15.606 28.3869 15.4541 28.9185 15.3722C29.4869 15.2827 30.0051 15.0265 30.5791 14.9318C31.0749 14.8499 31.5732 14.9886 32.0829 14.9882C32.5289 14.9892 33.0011 14.9823 33.432 15.1342C34.2725 15.4264 35.1406 15.9637 35.712 16.6404C36.3192 17.3528 36.8265 18.1951 37.3749 18.9609C38.0459 19.8966 38.8289 20.5772 39.8181 21.185C40.7297 21.7484 41.3149 22.8134 42.4436 22.9617C42.6663 22.9908 42.8322 23.0442 43.0429 23.1162C43.3017 23.2058 43.5413 23.1728 43.8059 23.2107C44.221 23.2745 44.6429 23.3613 45.0586 23.4392C45.282 23.4824 45.5035 23.5547 45.7262 23.5838C46.188 23.6372 46.5817 23.654 47.0342 23.8064C47.3156 23.8999 47.5986 24.0107 47.8991 24.0021C48.2666 23.9912 48.6476 23.8476 48.9819 23.7147C49.4439 23.5325 49.9495 23.412 50.384 23.1739C50.9543 22.8662 51.4201 22.401 51.9731 22.0593C52.2677 21.8776 52.6712 21.7024 52.895 21.4279C53.2855 20.9497 53.5693 20.3539 53.9411 19.8492C54.4353 19.1827 54.9487 18.4855 55.5346 17.8984C55.8192 17.6127 56.1494 17.3953 56.4308 17.1107C56.7878 16.746 57.0208 16.3011 57.3557 15.9218C57.6836 15.5552 57.9451 15.1338 58.1087 14.6598C58.2392 14.2887 58.242 13.849 58.4408 13.5035C58.6648 13.1113 58.9286 12.7213 59.1771 12.3395C59.3522 12.069 59.6308 11.728 60.0007 11.7841C60.5911 11.8736 60.9588 12.5012 61.5058 12.6715C62.0773 12.8523 62.6566 12.9879 63.2266 13.1869C63.8479 13.4026 64.4932 13.4969 65.1459 13.5569C65.9128 13.6287 66.7983 13.4436 67.5321 13.6896C68.3772 13.9733 69.0854 14.7016 69.8458 15.1536C71.7426 16.276 73.962 16.7659 75.9367 17.7328C76.6184 18.0658 77.0415 18.0737 77.2158 18.8168C77.3594 19.4228 77.0107 20.2166 76.9846 20.8275C76.9568 21.5387 77.1032 21.7051 76.6888 22.3403C76.2596 22.9979 75.5998 23.5288 75.1091 24.1478C73.2808 26.4549 70.8504 28.1373 68.9973 30.4447C66.8048 33.1756 64.1473 35.8185 61.1919 37.7343C59.7548 38.6674 58.1857 39.2337 56.5983 39.8339C54.726 40.5416 52.8867 41.4534 50.9108 41.8177C48.0131 42.3531 44.7871 43.2302 42.0712 41.7805C41.6543 41.5566 41.1877 41.4048 40.7965 41.1482C40.4901 40.9481 40.2519 40.8202 39.8875 40.7589C39.2579 40.6456 38.5551 40.7507 37.9433 40.5785C37.5072 40.4567 37.1242 40.2155 36.6755 40.1582C36.4495 40.1301 36.2266 40.1474 36.0086 40.0633C35.7714 39.9743 35.6411 39.8852 35.3897 39.879C35.0087 39.8691 34.6438 39.865 34.2609 39.8486C33.9287 39.8346 33.5915 39.8044 33.2563 39.7806C32.8155 39.7495 32.4302 39.8551 31.9956 39.8684C31.5189 39.8838 31.0538 39.6067 30.5672 39.5894C30.2327 39.5798 29.9016 39.6404 29.5787 39.7165C28.7263 39.9166 28.1107 40.5233 27.4361 41.0409C26.7559 41.5637 26.0508 42.0511 25.3998 42.6115C24.7511 43.1676 24.2162 43.7464 23.6432 44.376C23.1794 44.8835 22.6903 45.2594 22.5185 45.9427C22.3822 46.4834 22.2847 47.023 22.1022 47.5526C21.973 47.9163 21.718 48.4891 21.2688 48.5248C20.8402 48.5578 20.4612 47.9871 20.1202 47.7903C19.4688 47.416 18.7143 47.3261 18.0184 47.0758C16.9622 46.6952 16.1399 45.955 15.146 45.4736C14.7114 45.2622 14.2629 45.1228 13.8683 44.8315C13.5531 44.602 13.291 44.3243 12.959 44.1105C12.2847 43.6717 11.6472 43.1897 10.983 42.7372C10.7086 42.5489 10.3954 42.3972 10.139 42.1855C9.85842 41.9527 9.61792 41.6756 9.33631 41.4395C8.91847 41.0946 8.67674 40.6716 8.30953 40.2936C8.14901 40.1279 7.86826 40.0129 7.73488 39.8426C7.48582 39.5253 7.41549 38.9614 7.64936 38.6375C7.87768 38.3188 8.27785 38.1089 8.44365 37.7485C8.70944 37.1759 8.5512 36.6278 8.54753 36.0366C8.54561 35.8767 8.57052 35.7229 8.6072 35.5726L8.60621 35.5694Z" fill="white"/>
</mask>
<g mask="url(#mask0_2361_15)">
<path d="M9.5862 35.8262C10.2336 33.0798 11.1458 30.2535 12.248 27.6553C13.3108 25.1511 14.5698 23.0372 16.6561 21.266C18.9372 19.3253 21.718 17.9653 24.4051 16.6728C25.5571 16.1183 26.8365 15.9392 28.0509 15.5799C29.333 15.1966 30.7533 14.7752 32.0868 14.6333C33.873 14.444 36.136 15.8698 37.2689 17.1549C37.8967 17.8645 38.3516 18.6514 38.9421 19.3794C39.5857 20.1771 40.4047 21.0717 41.3338 21.5156C41.8751 21.7733 42.4201 21.9371 42.905 22.3153C43.3192 22.6363 43.6149 23.0608 44.1042 23.2878C45.4207 23.8932 45.8874 23.053 47.0507 23.0089C48.1545 22.9684 49.0862 23.2438 50.1516 22.7333C51.3911 22.138 52.2898 21.1461 53.2059 20.1526C54.4483 18.8108 56.2006 16.9727 56.8982 15.2315C57.2423 14.3749 57.1503 13.739 57.7735 13.0158C58.2594 12.4517 59.0502 11.8349 59.3135 11.1596C59.8336 11.4415 60.148 11.9282 60.6401 12.2472C62.0441 13.1543 64.157 13.5158 65.8048 13.6002C66.3914 13.6301 66.9568 13.4951 67.5248 13.6877C68.3699 13.9714 69.0781 14.6997 69.8385 15.1517C71.7353 16.2741 73.9547 16.764 75.9294 17.7309C76.6111 18.0639 77.0342 18.0718 77.2085 18.8149C77.3522 19.4209 77.0034 20.2147 76.9773 20.8256C76.9495 21.5369 77.0959 21.7032 76.6815 22.3384C76.2523 22.996 75.5925 23.5269 75.1018 24.1459C73.2735 26.453 70.8431 28.1354 68.99 30.4428C66.7976 33.1737 64.14 35.8167 61.1846 37.7324C59.7475 38.6655 58.1784 39.2318 56.591 39.832C54.7187 40.5397 52.8794 41.4515 50.9035 41.8158C48.0058 42.3512 44.7798 43.2283 42.0639 41.7786C40.7034 41.0509 39.8784 40.8575 38.321 40.86C36.9559 40.8616 35.8016 40.4749 34.4822 40.2379C32.417 39.8692 30.2921 40.8386 28.5169 41.7739C26.7539 42.7019 24.8367 44.4899 24.2497 46.4438C24.1076 46.9184 24.0915 47.9401 23.664 48.2725C23.4035 48.4724 23.2713 48.4124 22.9635 48.3733C22.2738 48.2852 21.4905 47.651 20.8231 47.4243C19.639 47.0216 18.3818 46.8372 17.2518 46.2826C16.2389 45.7855 15.2562 45.3292 14.2358 44.8664C12.5469 44.1023 11.4361 42.9496 10.2925 41.5465C9.64136 40.7475 8.91549 39.6535 7.9152 39.2453C7.89159 39.3916 7.80219 39.4971 9.58324 35.8164L9.5862 35.8262Z" fill="#73B8FF"/>
<path d="M17.2065 43.014C18.0268 41.2894 18.1828 39.3014 19.0659 37.6078C19.862 36.0867 21.242 34.8818 22.8569 34.3017C23.2748 34.1507 23.753 34.0456 24.148 34.244C24.6154 34.4812 24.8025 35.0776 24.724 35.5973C24.6444 36.1136 24.3559 36.5753 24.083 37.018C22.1942 40.0819 20.6004 43.3315 19.3368 46.7062C18.8669 47.9612 18.2884 49.3881 17.0201 49.8172C15.4052 50.3615 13.4272 48.864 13.7587 47.162C14.0445 45.6986 16.5068 44.4882 17.2065 43.014Z" fill="#171717"/>
<path d="M40.7737 21.8814C42.2797 21.3307 44.8365 19.0393 42.7926 17.583C40.3582 15.8486 36.4504 20.0676 35.4639 21.7139C35.1611 22.2228 34.8776 22.7721 34.3959 23.1137C34.0729 23.3432 33.683 23.4572 33.3108 23.5945C32.3831 23.9351 31.4722 24.4847 31.012 25.3585C30.5519 26.2323 30.7075 27.4806 31.5481 27.9976C32.6116 28.6507 33.9688 27.8666 34.8798 27.0101C37.1492 24.8768 37.7125 22.9978 40.7769 21.8805L40.7737 21.8814Z" fill="#171717"/>
<path d="M21.0769 23.7458C21.5446 24.7286 22.3389 25.6592 22.2335 26.74C22.1529 27.5599 21.5515 28.3908 21.9017 29.1378C22.2233 29.8257 23.2417 29.9394 23.8737 29.5168C24.5047 29.091 24.8031 28.3194 24.9368 27.5691C25.0887 26.7133 25.0471 25.7483 24.4783 25.0922C24.1729 24.7419 23.7474 24.5135 23.4277 24.1747C22.7011 23.4092 22.6424 22.2103 22.909 21.1914C23.2264 19.9861 26.0532 14.1345 22.7647 15.5728C20.2515 16.6736 20.1262 21.7529 21.0769 23.7458Z" fill="#171717"/>
<path d="M30.358 32.5027C30.0346 32.6716 29.6882 32.9652 29.7569 33.3227C29.7906 33.5052 29.9311 33.6519 30.0735 33.7695C30.8971 34.4665 32.0486 34.7612 33.1066 34.5454C35.0109 34.1564 37.373 34.3392 38.8836 35.7886C42.2893 39.0639 43.7114 33.9216 39.3371 32.4585C36.882 31.6366 32.7382 31.2564 30.3571 32.4994L30.358 32.5027Z" fill="#171717"/>
<path d="M10.1606 29.2342C8.70006 29.8176 7.61367 31.5583 8.24434 32.9985C8.40653 33.3706 8.68637 33.7072 9.05974 33.8693C9.88435 34.227 10.8038 33.6463 11.4511 33.0264C12.0984 32.4065 12.7762 31.6632 13.6759 31.6201C14.8686 31.567 19.2269 35.033 18.3911 31.5068C17.7925 28.9793 11.9829 28.5024 10.1629 29.23L10.1606 29.2342Z" fill="#171717"/>
<path d="M53.2976 27.6173C51.5021 27.9771 49.7053 28.3088 47.9081 28.0483C47.3338 27.9647 46.6104 27.8833 46.2983 28.3735C46.0949 28.6918 46.1852 29.1212 46.3702 29.4507C47.6025 31.6085 50.3164 29.6015 52.0517 30.3302C53.1466 30.7919 54.814 31.0951 55.931 30.5547C56.7873 30.1429 58.3722 28.4944 57.3768 27.5353C56.8796 27.0574 56.0887 27.1069 55.4052 27.2168C54.7021 27.3327 53.9993 27.4734 53.2933 27.615L53.2976 27.6173Z" fill="#171717"/>
<path d="M51.2489 35.0434C51.0344 35.0653 50.8066 35.1019 50.6512 35.2487C50.488 35.405 50.4456 35.6425 50.3972 35.8605C50.1418 37.0936 49.589 38.263 48.7932 39.2416C48.1093 40.083 47.2523 40.7876 46.6807 41.7058C45.9801 42.8342 45.7658 44.251 46.0996 45.5347C46.1766 45.8254 46.288 46.1236 46.5179 46.3183C46.7943 46.5488 47.1897 46.583 47.5476 46.5285C48.8555 46.3372 49.8722 45.1099 50.0359 43.7975C50.1836 42.5969 49.7473 41.2693 50.3549 40.2225C51.1204 38.9069 53.1819 38.7201 53.7909 37.3233C54.6588 35.331 52.6873 34.8948 51.2479 35.0401L51.2489 35.0434Z" fill="#171717"/>
<path d="M63.7866 26.3155C63.366 26.7885 62.9349 27.2861 62.7781 27.9007C62.6212 28.5153 62.8427 29.2727 63.4287 29.5133C64.0841 29.7829 64.7997 29.3066 65.2968 28.8034C65.8817 28.213 66.3889 27.5426 66.8016 26.8187C67.195 26.1255 67.5647 25.3182 68.3044 25.0165C69.348 24.5875 70.5675 25.2257 71.3988 24.2113C72.2458 23.1779 71.7886 22.5488 70.7385 22.2948C68.1955 21.6777 65.2273 24.6856 63.7856 26.3122L63.7866 26.3155Z" fill="#171717"/>
<path d="M58.2554 20.7344C58.4339 21.1016 58.5324 21.5107 58.7713 21.8418C59.2709 22.5402 60.2295 22.7041 61.0847 22.785C61.6276 22.8352 62.1946 22.8711 62.7077 22.6806C63.2207 22.4901 63.6622 22.0037 63.6302 21.4603C63.5824 20.6755 62.8974 20.0009 62.1725 19.8201C61.675 19.6955 61.1223 19.6481 60.7388 19.3107C60.3079 18.9341 60.1674 18.2558 59.6529 18.0043C59.4186 17.8895 59.1433 17.8869 58.8839 17.8546C55.6821 17.4292 57.2667 12.3057 55.1911 12.1863C54.1937 12.1305 53.6019 13.7968 53.5019 14.5406C53.0295 18.0798 57.029 18.2181 58.2606 20.74L58.2554 20.7344Z" fill="#171717"/>
<path d="M60.6488 37.7304C60.0358 36.5382 59.7287 35.1894 59.7669 33.8506C59.7737 33.6488 59.7884 33.4374 59.8894 33.2642C60.1088 32.8805 60.6423 32.8051 61.0702 32.9115C61.9806 33.1399 62.6337 33.9454 63.0471 34.7839C63.4616 35.6258 63.7108 36.546 64.1922 37.3498C64.5952 38.0239 65.1719 38.6705 65.1742 39.4583C65.1738 40.4967 63.7173 41.8852 62.6289 41.4215C61.8073 41.0736 61.0664 38.5356 60.652 37.7294L60.6488 37.7304Z" fill="#171717"/>
</g>
</g>
<defs>
<clipPath id="clip0_2361_15">
<rect width="75.6511" height="37.3891" fill="white" transform="matrix(0.957367 -0.288876 -0.288876 -0.957367 10.8008 57.6488)"/>
</clipPath>
</defs>
</svg>
