<svg width="42" height="40" viewBox="0 0 42 40" fill="none" xmlns="http://www.w3.org/2000/svg">
<g clip-path="url(#clip0_2361_32)">
<path d="M12.0296 -7.39002C14.0407 -7.92613 16.1928 -8.3178 18.2616 -8.50716C20.2556 -8.68969 22.0693 -8.60699 23.9457 -7.86987C24.9247 -7.48602 25.8543 -6.98487 26.7466 -6.42931C27.6898 -5.84317 28.6126 -5.22642 29.5491 -4.62668C30.6316 -3.93179 32.2887 -3.1487 33.1145 -2.17326C33.5223 -1.69063 33.9641 -1.17742 34.3702 -0.682897C34.7831 -0.178175 34.9362 -0.35841 35.055 0.280694C35.0889 0.460867 34.6994 1.08144 34.679 1.31943C34.6431 1.7393 34.8538 2.1234 34.8468 2.54157C34.8157 4.32982 33.6202 5.74959 33.5652 7.49365C33.5343 8.44558 33.3028 9.49616 33.3195 10.4311C33.3612 12.9621 36.1875 14.5472 38.4226 15.1465C39.9507 15.5557 41.3359 15.9037 42.9202 15.8148C43.4608 15.784 44.7153 15.5864 45.1265 16.0758C45.5156 16.5398 45.1824 16.8322 45.1482 17.3762C45.0611 18.782 45.4465 20.1095 46.0444 21.3774C46.2279 21.7683 46.5134 22.0877 46.5863 22.5246C46.6949 23.1739 46.4686 23.8862 46.4429 24.5373C46.376 26.1606 46.8311 27.7719 46.8917 29.3902C46.912 29.9477 47.0547 30.2265 46.6313 30.5989C46.2878 30.9015 45.6503 30.9545 45.2457 31.1518C44.7748 31.3814 44.7169 31.5344 44.1594 31.487C43.5832 31.4379 43.0087 31.1933 42.4342 31.0915C40.2993 30.708 38.3601 29.7176 36.215 29.3172C33.6773 28.8437 31.036 28.0389 28.762 26.7885C27.6573 26.1803 26.7413 25.3596 25.7982 24.5355C24.6868 23.5669 23.4547 22.6885 22.5269 21.5329C21.1693 19.8386 19.4751 18.0492 19.4742 15.7799C19.4728 14.6427 19.3116 14.0393 18.7662 13.0281C18.2889 12.1426 18.1396 11.2588 17.8322 10.3188C17.3516 8.84862 15.9836 7.80706 14.7566 6.98133C13.5414 6.1607 11.7109 5.53745 10.237 5.8354C9.88004 5.90691 9.21018 6.2539 8.84647 6.09083C8.62552 5.99231 8.61876 5.88353 8.53723 5.67277C8.3555 5.19517 8.49173 4.46419 8.4052 3.95256C8.25421 3.04319 7.93493 2.16277 7.90123 1.23467C7.87261 0.403449 7.82527 -0.392066 7.76945 -1.21648C7.6764 -2.57803 8.03883 -3.70175 8.55089 -4.9343C8.84349 -5.63474 9.30103 -6.48651 9.2163 -7.27862C9.11259 -7.24289 9.01401 -7.26325 12.0245 -7.39172L12.0296 -7.39002Z" fill="white"/>
<mask id="mask0_2361_32" style="mask-type:luminance" maskUnits="userSpaceOnUse" x="8" y="-8" width="39" height="40">
<path d="M12.9675 -6.78852C13.4622 -6.90937 14.0231 -6.78376 14.5161 -6.89272C14.783 -6.9523 15.0193 -7.07646 15.2947 -7.10375C15.5225 -7.11062 15.752 -7.1056 15.9798 -7.09548C16.5033 -7.06845 16.9487 -7.17398 17.423 -7.35942C17.9143 -7.55167 18.635 -7.47031 19.1518 -7.43988C19.6532 -7.41115 20.102 -7.46909 20.6001 -7.49475C21.0692 -7.5187 21.5265 -7.44236 21.9905 -7.37621C22.6092 -7.28802 23.2586 -7.21004 23.8619 -7.03175C24.8155 -6.74819 25.7672 -6.29294 26.5762 -5.71185C27.3885 -5.12737 28.2604 -4.6364 29.0812 -4.06722C29.4007 -3.84634 29.7032 -3.62206 30.0244 -3.41308C30.3898 -3.17352 30.7399 -2.79967 30.9964 -2.44788C31.0831 -2.32722 31.1323 -2.17595 31.2275 -2.05699C31.3107 -1.95333 31.4331 -1.89217 31.5164 -1.78851C31.7559 -1.49451 32.0295 -1.21073 32.2572 -0.908228C32.5019 -0.585336 32.8333 -0.349164 33.0831 -0.0245737C33.2988 0.255832 33.3786 0.611075 33.5485 0.927191C33.6963 1.20422 33.8577 1.49484 33.9069 1.8127C34.0053 2.43141 33.9608 3.14876 33.7312 3.72849C33.4913 4.34221 33.1375 4.93727 32.845 5.53232C32.4878 6.25997 32.326 6.97226 32.2782 7.7882C32.232 8.54125 31.766 9.25874 32.0497 10.0083C32.1057 10.1562 32.1278 10.2768 32.1532 10.4315C32.1838 10.6219 32.284 10.7595 32.3485 10.9363C32.447 11.2151 32.5336 11.5057 32.6236 11.7895C32.6712 11.9425 32.7 12.104 32.7561 12.2519C32.8767 12.5561 32.9973 12.8059 33.0533 13.1374C33.0889 13.3431 33.1143 13.5555 33.2196 13.7391C33.3488 13.9634 33.5646 14.152 33.7583 14.3152C34.0251 14.5411 34.2681 14.8147 34.5604 15.005C34.9411 15.2565 35.3847 15.3906 35.7807 15.62C35.9915 15.7423 36.2345 15.9343 36.4792 15.9818C36.9059 16.065 37.3699 16.0427 37.8068 16.1055C38.3847 16.1903 38.9881 16.2768 39.5473 16.4449C39.8193 16.5264 40.064 16.6589 40.3342 16.7387C40.6793 16.8389 41.0329 16.8354 41.3796 16.9168C41.7161 16.9983 42.0646 17.0203 42.4131 16.9641C42.6868 16.9215 42.9605 16.7769 43.241 16.7853C43.5588 16.7937 43.8886 16.8276 44.2082 16.8547C44.4342 16.8733 44.7385 16.9327 44.8268 17.1809C44.9678 17.5769 44.7008 18.0139 44.7771 18.4099C44.8552 18.8246 44.9638 19.2292 45.03 19.649C45.1029 20.1062 45.2592 20.538 45.4392 20.9629C45.6498 21.4625 46.0593 21.9503 46.151 22.4874C46.2562 23.1061 46.04 23.7878 46.0126 24.41C45.9475 25.9603 46.3822 27.5002 46.4395 29.047C46.4597 29.5808 46.5956 29.8459 46.1926 30.2013C45.8645 30.4921 45.2559 30.5399 44.8683 30.727C44.4178 30.9464 44.3633 31.0926 43.8313 31.0469C43.2805 30.9995 42.7316 30.7668 42.1842 30.6684C40.1445 30.3019 38.292 29.354 36.2438 28.9722C33.82 28.5208 31.2959 27.7516 29.1239 26.5556C28.0668 25.9746 27.1933 25.1895 26.2927 24.4045C25.2306 23.4784 24.0528 22.6408 23.1693 21.5362C21.8728 19.9166 20.2551 18.2071 20.2507 16.0398C20.2508 15.7066 20.1898 15.3667 20.2188 15.0386C20.2409 14.7819 20.241 14.5915 20.1578 14.3451C20.0185 13.9168 19.7195 13.5157 19.6228 13.0789C19.5532 12.7678 19.5754 12.4499 19.4616 12.1525C19.4038 12.0029 19.3189 11.8704 19.2985 11.7072C19.2748 11.5304 19.2867 11.4199 19.2069 11.2619C19.0863 11.0222 18.9674 10.7945 18.8501 10.5514C18.7482 10.3407 18.6548 10.1214 18.558 9.90559C18.4306 9.62176 18.2369 9.41784 18.084 9.15272C17.9158 8.8621 17.9329 8.48132 17.7817 8.1737C17.6764 7.96295 17.5286 7.77772 17.3739 7.60268C16.9661 7.14046 16.3848 6.96046 15.8393 6.71416C15.2886 6.46616 14.7515 6.19096 14.1872 5.97357C13.6264 5.75617 13.0893 5.61696 12.508 5.47096C12.0388 5.35212 11.6428 5.17377 11.1617 5.29461C10.7809 5.38993 10.4137 5.50904 10.0244 5.57206C9.75585 5.61294 9.31558 5.64538 9.14398 5.37856C8.98088 5.12364 9.2088 4.6986 9.21739 4.42152C9.23286 3.89286 9.03754 3.39487 8.96121 2.87984C8.84588 2.09795 9.03141 1.34145 8.99936 0.564631C8.98588 0.224665 8.92309 -0.099986 8.9725 -0.441672C9.00998 -0.713661 9.09506 -0.968666 9.11724 -1.24575C9.16502 -1.81011 9.2519 -2.36599 9.31158 -2.92866C9.33715 -3.16155 9.32703 -3.40633 9.373 -3.63582C9.42408 -3.88742 9.51595 -4.12883 9.56873 -4.38212C9.64364 -4.75611 9.82562 -5.04685 9.93793 -5.40045C9.98727 -5.55516 9.96525 -5.76763 10.0265 -5.90704C10.1405 -6.16715 10.4669 -6.39844 10.7457 -6.36113C11.0193 -6.32552 11.2828 -6.14713 11.5615 -6.16422C12.0052 -6.18986 12.2926 -6.47043 12.6581 -6.66943C12.7567 -6.72386 12.8604 -6.75959 12.9658 -6.78682L12.9675 -6.78852Z" fill="white"/>
</mask>
<g mask="url(#mask0_2361_32)">
<path d="M13.1339 -6.09456C15.0532 -6.60684 17.1101 -6.98148 19.0888 -7.16231C20.9961 -7.33631 22.7265 -7.25869 24.5196 -6.55383C26.4827 -5.78444 28.2518 -4.51183 29.9479 -3.27489C30.6753 -2.74477 31.2122 -2.01061 31.8392 -1.37677C32.5036 -0.708946 33.2377 0.0319479 33.7695 0.812006C34.4814 1.85718 34.3499 3.73556 33.9297 4.8661C33.6983 5.49172 33.3616 6.03578 33.1064 6.64441C32.8257 7.30915 32.5432 8.11497 32.577 8.83909C32.5973 9.26065 32.677 9.65329 32.6038 10.08C32.5425 10.4438 32.3775 10.7685 32.3995 11.1475C32.462 12.1657 33.1386 12.1757 33.5531 12.8827C33.9456 13.554 34.0847 14.2237 34.756 14.7148C35.5378 15.2857 36.4522 15.5131 37.3734 15.7508C38.6193 16.0751 40.3428 16.5505 41.6551 16.4039C42.3011 16.3323 42.665 16.0636 43.3211 16.2095C43.8327 16.3233 44.4785 16.6086 44.9851 16.5473C44.9833 16.9637 44.786 17.3208 44.7518 17.7321C44.6563 18.9051 45.1352 20.3362 45.6312 21.3865C45.8078 21.7604 46.0797 22.0663 46.1493 22.4828C46.2545 23.1015 46.0384 23.7832 46.011 24.4053C45.9459 25.9556 46.3805 27.4956 46.4378 29.0424C46.458 29.5762 46.5939 29.8413 46.191 30.1967C45.8628 30.4875 45.2542 30.5353 44.8666 30.7224C44.4161 30.9418 44.3616 31.088 43.8296 31.0423C43.2788 30.9949 42.7299 30.7622 42.1826 30.6638C40.1428 30.2972 38.2903 29.3493 36.2421 28.9675C33.8183 28.5162 31.2943 27.747 29.1222 26.551C28.0651 25.97 27.1917 25.1849 26.291 24.3999C25.2289 23.4738 24.0512 22.6362 23.1676 21.5316C21.8711 19.912 20.2534 18.2025 20.249 16.0352C20.2477 14.949 20.0932 14.3728 19.5734 13.4074C19.1181 12.5611 18.9739 11.7163 18.6818 10.8189C18.2233 9.41492 16.9147 8.41924 15.7438 7.62919C14.5813 6.84424 12.8341 6.24986 11.4265 6.53589C11.0848 6.6057 10.4456 6.93568 10.0971 6.78111C9.8864 6.68598 9.87963 6.58399 9.8015 6.38004C9.62657 5.92283 9.75938 5.22585 9.67795 4.73632C9.53375 3.86774 9.22975 3.02642 9.19774 2.14081C9.1691 1.34698 9.12515 0.585466 9.07271 -0.201548C8.98475 -1.50361 9.33017 -2.57633 9.82011 -3.75278C10.0991 -4.42261 10.5362 -5.23699 10.4566 -5.99339C10.358 -5.95936 10.2628 -5.97973 13.139 -6.09966L13.1339 -6.09456Z" fill="#73B8FF"/>
<path d="M11.2107 1.02456C12.5536 0.959523 13.8389 0.394753 15.1835 0.379015C16.3921 0.366723 17.5988 0.821889 18.4961 1.63073C18.7289 1.83973 18.9532 2.10144 18.9616 2.41251C18.97 2.78137 18.6622 3.09594 18.3137 3.22015C17.9669 3.34265 17.5844 3.31728 17.219 3.2953C14.6896 3.14314 12.1432 3.23576 9.62904 3.57485C8.69408 3.70094 7.61633 3.81688 6.9281 3.17286C6.05295 2.35212 6.32379 0.626684 7.49 0.265936C8.49302 -0.0437645 10.0633 1.08102 11.2107 1.02456Z" fill="#171717"/>
<path d="M32.1641 8.6129C33.007 9.36396 35.2794 10.1876 35.5027 8.43503C35.7686 6.34752 31.8507 5.32719 30.5011 5.26304C30.0846 5.24447 29.6495 5.25142 29.2772 5.06625C29.0274 4.94225 28.8269 4.73833 28.6179 4.55311C28.0979 4.09092 27.4537 3.70867 26.7585 3.71399C26.0633 3.71932 25.3407 4.23121 25.2996 4.92476C25.2484 5.8019 26.1865 6.38295 27.021 6.66315C29.0997 7.36111 30.4529 7.08529 32.1658 8.6146L32.1641 8.6129Z" fill="#171717"/>
<path d="M24.4522 -2.98598C23.9981 -2.36879 23.6851 -1.56635 22.9795 -1.27205C22.444 -1.0492 21.7284 -1.14585 21.3815 -0.679981C21.0618 -0.251514 21.3301 0.418139 21.8026 0.669563C22.2768 0.919287 22.8548 0.847705 23.3648 0.680953C23.9462 0.49038 24.531 0.14342 24.7488 -0.427801C24.8645 -0.733812 24.8646 -1.07378 24.9684 -1.38489C25.2015 -2.0904 25.9258 -2.5258 26.6466 -2.69942C27.5 -2.90368 32.0709 -3.09725 30.0843 -4.65877C28.565 -5.85157 25.3722 -4.23907 24.4522 -2.98598Z" fill="#171717"/>
<path d="M22.1086 5.68599C21.8962 5.54157 21.5988 5.42438 21.3998 5.58593C21.2978 5.66756 21.2536 5.80356 21.228 5.93106C21.0697 6.67394 21.27 7.48641 21.756 8.071C22.6311 9.12292 23.3037 10.6492 22.9072 12.0687C22.0086 15.2715 25.6721 14.4425 25.1241 11.2418C24.817 9.44518 23.6739 6.74789 22.1103 5.68429L22.1086 5.68599Z" fill="#171717"/>
<path d="M32.7729 18.2922C31.9522 17.298 31.1485 16.2937 30.712 15.092C30.5727 14.7079 30.3825 14.232 29.9745 14.2015C29.7094 14.1812 29.473 14.3802 29.3302 14.6046C28.4016 16.0872 30.5498 17.103 30.6752 18.4221C30.7531 19.255 31.1199 20.3903 31.8269 20.9035C32.3673 21.2976 33.9174 21.7323 34.1812 20.7956C34.3123 20.3281 34.0183 19.8539 33.7227 19.4665C33.4169 19.0688 33.0957 18.6796 32.7729 18.2888L32.7729 18.2922Z" fill="#171717"/>
<path d="M27.4841 19.4924C27.3992 19.3667 27.3006 19.2375 27.1578 19.19C27.0066 19.1407 26.8451 19.1935 26.6938 19.236C25.8437 19.4879 24.9343 19.5341 24.0623 19.3661C23.3128 19.2218 22.5904 18.9246 21.8306 18.8755C20.8974 18.8163 19.9471 19.1549 19.2618 19.7892C19.1071 19.9337 18.9592 20.1021 18.9149 20.3095C18.8638 20.5576 18.9742 20.8143 19.1271 21.0182C19.681 21.766 20.7808 21.9883 21.6495 21.6531C22.4434 21.3452 23.1219 20.6328 23.9735 20.6614C25.0444 20.6984 25.8464 21.9152 26.9156 21.8282C28.4404 21.7036 28.055 20.3354 27.4858 19.4907L27.4841 19.4924Z" fill="#171717"/>
<path d="M37.0714 24.3657C36.638 24.2621 36.1858 24.1603 35.7523 24.2675C35.3188 24.3747 34.9227 24.7641 34.9684 25.2078C35.0192 25.7041 35.5529 25.9895 36.0305 26.1304C36.5914 26.2969 37.1761 26.3885 37.7626 26.4036C38.3235 26.417 38.9474 26.3777 39.3807 26.7362C39.9942 27.2409 40.0041 28.2098 40.91 28.388C41.833 28.5695 42.0711 28.0765 41.8793 27.3405C41.4158 25.5575 38.562 24.717 37.0731 24.364L37.0714 24.3657Z" fill="#171717"/>
<path d="M38.6932 19.0772C38.5248 19.3102 38.3038 19.5074 38.1779 19.7658C37.9108 20.3082 38.1282 20.9574 38.3626 21.5149C38.5121 21.8684 38.6786 22.2322 38.9674 22.487C39.2563 22.7419 39.7051 22.854 40.0315 22.6533C40.5025 22.3624 40.693 21.713 40.564 21.2031C40.4757 20.853 40.3212 20.4944 40.4029 20.1442C40.4931 19.7515 40.8672 19.4386 40.852 19.0357C40.8453 18.8521 40.7552 18.6805 40.689 18.5088C39.8874 16.3809 43.5933 15.6589 42.9767 14.3315C42.6794 13.6942 41.4486 13.8816 40.9539 14.067C38.601 14.9517 39.8462 17.479 38.6915 19.0823L38.6932 19.0772Z" fill="#171717"/>
<path d="M28.9456 26.2182C29.4813 25.4412 30.2158 24.8018 31.0591 24.3799C31.1866 24.317 31.3226 24.2558 31.4637 24.2608C31.7747 24.2692 31.999 24.5751 32.0754 24.876C32.2367 25.5167 31.9543 26.19 31.5717 26.7256C31.1873 27.2628 30.6993 27.7237 30.3609 28.2898C30.0768 28.7642 29.8676 29.3371 29.3796 29.6007C28.7353 29.946 27.3891 29.5045 27.3146 28.675C27.257 28.0495 28.585 26.7452 28.9472 26.2199L28.9456 26.2182Z" fill="#171717"/>
</g>
</g>
<defs>
<clipPath id="clip0_2361_32">
<rect width="53.259" height="26.3223" fill="white" transform="matrix(0.707107 0.707107 0.707107 -0.707107 0 1.9209)"/>
</clipPath>
</defs>
</svg>
